<svg width="260" height="48" viewBox="0 0 260 48" fill="none" xmlns="http://www.w3.org/2000/svg">
<path d="M22.976 0.959999C27.0293 0.959999 30.336 2.06933 32.896 4.288C35.4987 6.464 36.8 9.74933 36.8 14.144C36.8 17.6427 35.6267 20.9067 33.28 23.936C30.9333 26.9227 27.9253 29.312 24.256 31.104C20.6293 32.896 16.9813 33.792 13.312 33.792C12.928 33.792 12.6933 33.7493 12.608 33.664L12.928 31.936C15.7867 31.6373 18.5813 30.7413 21.312 29.248C24.0427 27.7547 26.2613 25.8133 27.968 23.424C29.7173 20.992 30.592 18.304 30.592 15.36C30.592 12.16 29.6107 9.6 27.648 7.68C25.728 5.76 22.8693 4.8 19.072 4.8C16.128 4.8 13.0133 5.504 9.728 6.912C6.48533 8.27733 3.648 10.0693 1.216 12.288L-2.74181e-06 10.944C3.11466 8.04267 6.74133 5.65333 10.88 3.776C15.0613 1.89867 19.0933 0.959999 22.976 0.959999ZM9.984 45.312L4.096 47.552V12.544L9.984 10.24V45.312ZM148.941 0C151.672 0 153.869 0.768 155.533 2.304C157.197 3.84 158.029 5.84533 158.029 8.32C158.029 10.2827 157.496 12.3093 156.429 14.4C155.405 16.4907 154.04 18.3253 152.333 19.904C150.627 21.4827 148.835 22.5493 146.957 23.104L146.317 21.952C148.152 21.1413 149.624 19.84 150.733 18.048C151.885 16.256 152.461 14.3573 152.461 12.352C152.461 9.792 151.693 7.744 150.157 6.208C148.621 4.62933 146.573 3.84 144.013 3.84C141.453 3.84 139.043 4.75733 136.781 6.592C134.52 8.42666 132.707 10.88 131.341 13.952C129.976 16.9813 129.293 20.224 129.293 23.68C129.293 27.4347 129.869 30.7413 131.021 33.6C132.173 36.4587 133.795 38.6773 135.885 40.256C138.019 41.792 140.451 42.56 143.181 42.56C145.229 42.56 147.235 42.1333 149.197 41.28C151.16 40.384 152.952 39.104 154.573 37.44L155.981 38.848C151.459 44.5653 146.104 47.424 139.917 47.424C136.461 47.424 133.475 46.5707 130.957 44.864C128.44 43.1573 126.499 40.8533 125.133 37.952C123.811 35.008 123.149 31.744 123.149 28.16C123.149 22.912 124.301 18.1547 126.605 13.888C128.952 9.57867 132.109 6.18667 136.077 3.712C140.045 1.23733 144.333 0 148.941 0Z" fill="#FF0F0F"/>
<path d="M45.0315 44.92L48.5235 45.64C48.5955 46.096 48.5355 46.516 48.3435 46.9C47.9115 46.876 47.3715 46.852 46.7235 46.828C46.0995 46.804 45.4755 46.78 44.8515 46.756C44.2275 46.732 43.6875 46.72 43.2315 46.72C42.5595 46.72 41.8275 46.732 41.0355 46.756C40.2435 46.804 39.5115 46.852 38.8395 46.9C38.7675 46.444 38.7915 46.024 38.9115 45.64C39.3675 45.52 39.8115 45.412 40.2435 45.316C40.6995 45.22 41.0955 45.088 41.4315 44.92V30.88L38.4435 30.592C38.3715 30.112 38.4315 29.692 38.6235 29.332C39.4875 29.212 40.3515 29.068 41.2155 28.9C42.1035 28.732 42.9195 28.552 43.6635 28.36C43.9035 28.384 44.0955 28.432 44.2395 28.504C44.4075 28.552 44.6115 28.636 44.8515 28.756V32.032L44.8875 32.068C45.6315 30.964 46.4595 30.028 47.3715 29.26C48.3075 28.492 49.3035 28.108 50.3595 28.108C50.7675 28.108 51.1635 28.144 51.5475 28.216C51.9555 28.264 52.3515 28.408 52.7355 28.648C52.7835 29.632 52.7355 30.568 52.5915 31.456C52.4715 32.344 52.2795 33.208 52.0155 34.048C51.8475 34.072 51.5835 34.084 51.2235 34.084C50.8635 34.06 50.5875 34 50.3955 33.904L49.8915 30.304C49.0515 30.304 48.1995 30.616 47.3355 31.24C46.4955 31.84 45.7275 32.956 45.0315 34.588V44.92ZM60.6794 44.92L63.0914 45.64C63.1634 46.096 63.1034 46.516 62.9114 46.9C62.2634 46.852 61.5914 46.804 60.8954 46.756C60.2234 46.732 59.5514 46.72 58.8794 46.72C58.2074 46.72 57.4754 46.732 56.6834 46.756C55.8914 46.804 55.1594 46.852 54.4874 46.9C54.4154 46.444 54.4394 46.024 54.5594 45.64C55.0154 45.52 55.4594 45.412 55.8914 45.316C56.3474 45.22 56.7434 45.088 57.0794 44.92V30.88L54.0914 30.592C54.0194 30.112 54.0794 29.692 54.2714 29.332C55.1354 29.212 55.9994 29.068 56.8634 28.9C57.7514 28.732 58.5674 28.552 59.3114 28.36C59.5514 28.384 59.7794 28.432 59.9954 28.504C60.2114 28.552 60.4394 28.636 60.6794 28.756V44.92ZM58.2674 25.084C57.8594 25.084 57.4874 24.952 57.1514 24.688C56.8154 24.424 56.5514 24.1 56.3594 23.716C56.1674 23.332 56.0714 22.972 56.0714 22.636C56.0714 22.324 56.2034 22.012 56.4674 21.7C56.7314 21.364 57.0554 21.088 57.4394 20.872C57.8474 20.632 58.2434 20.512 58.6274 20.512C59.0594 20.512 59.4434 20.656 59.7794 20.944C60.1154 21.208 60.3674 21.532 60.5354 21.916C60.7274 22.276 60.8234 22.624 60.8234 22.96C60.8234 23.272 60.6914 23.596 60.4274 23.932C60.1874 24.268 59.8634 24.544 59.4554 24.76C59.0714 24.976 58.6754 25.084 58.2674 25.084ZM70.6888 31.132L70.7248 31.168C71.8768 30.016 73.0648 29.224 74.2888 28.792C75.5128 28.36 76.5808 28.144 77.4928 28.144C79.0528 28.144 80.2768 28.588 81.1648 29.476C82.0768 30.364 82.5328 31.66 82.5328 33.364L82.5688 44.92L85.0888 45.64C85.1608 46.096 85.1008 46.516 84.9088 46.9C84.2608 46.852 83.5768 46.804 82.8568 46.756C82.1368 46.732 81.4408 46.72 80.7688 46.72C80.0968 46.72 79.3888 46.732 78.6448 46.756C77.9008 46.804 77.1928 46.852 76.5208 46.9C76.4488 46.444 76.4728 46.024 76.5928 45.64C77.0728 45.544 77.4928 45.436 77.8528 45.316C78.2368 45.196 78.6088 45.064 78.9688 44.92V34.984C78.9688 33.352 78.7168 32.224 78.2128 31.6C77.7088 30.976 76.9048 30.664 75.8008 30.664C74.9128 30.664 74.0488 30.844 73.2088 31.204C72.3688 31.54 71.6248 32.08 70.9768 32.824V44.92L73.3888 45.64C73.4608 46.096 73.4008 46.516 73.2088 46.9C72.5608 46.852 71.8888 46.804 71.1928 46.756C70.5208 46.732 69.8488 46.72 69.1768 46.72C68.5048 46.72 67.7728 46.732 66.9808 46.756C66.1888 46.804 65.4568 46.852 64.7848 46.9C64.7128 46.444 64.7368 46.024 64.8568 45.64C65.2888 45.52 65.7208 45.412 66.1528 45.316C66.5848 45.196 66.9928 45.064 67.3768 44.92V30.88L64.3888 30.592C64.3168 30.112 64.3768 29.692 64.5688 29.332C65.4568 29.188 66.3208 29.032 67.1608 28.864C68.0008 28.696 68.8048 28.528 69.5728 28.36C69.9808 28.384 70.3888 28.492 70.7968 28.684L70.6888 31.132ZM99.0402 30.16C98.6802 29.992 98.2362 29.872 97.7082 29.8C97.2042 29.704 96.7482 29.656 96.3402 29.656C95.0682 29.656 94.0122 30.004 93.1722 30.7C92.3322 31.372 91.6962 32.32 91.2642 33.544C90.8562 34.744 90.6522 36.136 90.6522 37.72C90.6522 39.52 90.8922 40.984 91.3722 42.112C91.8762 43.24 92.5362 44.068 93.3522 44.596C94.1922 45.124 95.1162 45.388 96.1242 45.388C96.9162 45.388 97.7322 45.244 98.5722 44.956C99.4362 44.644 100.276 44.224 101.092 43.696C101.284 43.816 101.428 43.96 101.524 44.128C101.62 44.272 101.692 44.44 101.74 44.632C100.852 45.568 99.8682 46.252 98.7882 46.684C97.7322 47.116 96.6642 47.332 95.5842 47.332C94.0962 47.332 92.6802 46.96 91.3362 46.216C89.9922 45.472 88.9002 44.38 88.0602 42.94C87.2202 41.5 86.8002 39.76 86.8002 37.72C86.8002 35.608 87.2202 33.844 88.0602 32.428C88.9242 30.988 90.0762 29.908 91.5162 29.188C92.9562 28.444 94.5282 28.072 96.2322 28.072C97.1442 28.072 98.0682 28.168 99.0042 28.36C99.9402 28.528 100.876 28.816 101.812 29.224C101.812 31 101.572 32.632 101.092 34.12C100.996 34.144 100.9 34.156 100.804 34.156C100.708 34.156 100.612 34.156 100.516 34.156C100.348 34.156 100.18 34.144 100.012 34.12C99.8442 34.096 99.6762 34.048 99.5082 33.976L99.0402 30.16ZM107.913 37.72C107.913 40.144 108.393 42.028 109.353 43.372C110.337 44.692 111.669 45.352 113.349 45.352C114.093 45.352 114.717 45.316 115.221 45.244C115.725 45.148 116.217 44.98 116.697 44.74C117.201 44.5 117.765 44.164 118.389 43.732C118.773 43.9 118.989 44.188 119.037 44.596C118.293 45.46 117.405 46.132 116.373 46.612C115.341 47.092 114.297 47.332 113.241 47.332C111.417 47.332 109.821 46.948 108.453 46.18C107.085 45.412 106.017 44.308 105.249 42.868C104.481 41.428 104.097 39.712 104.097 37.72C104.097 35.68 104.493 33.952 105.285 32.536C106.101 31.096 107.181 30.004 108.525 29.26C109.893 28.492 111.405 28.108 113.061 28.108C115.197 28.108 116.769 28.828 117.777 30.268C118.809 31.684 119.325 33.52 119.325 35.776C119.325 35.944 119.325 36.1 119.325 36.244C119.325 36.388 119.313 36.544 119.289 36.712L118.785 37.108L107.913 37V37.72ZM113.025 29.656C112.329 29.656 111.633 29.872 110.937 30.304C110.265 30.736 109.665 31.384 109.137 32.248C108.609 33.112 108.249 34.204 108.057 35.524L115.905 35.092C115.905 33.244 115.701 31.876 115.293 30.988C114.909 30.1 114.153 29.656 113.025 29.656ZM167.246 44.92L169.658 45.64C169.73 46.096 169.67 46.516 169.478 46.9C168.83 46.852 168.158 46.804 167.462 46.756C166.79 46.732 166.118 46.72 165.446 46.72C164.774 46.72 164.042 46.732 163.25 46.756C162.458 46.804 161.726 46.852 161.054 46.9C160.982 46.444 161.006 46.024 161.126 45.64C161.582 45.52 162.026 45.412 162.458 45.316C162.914 45.22 163.31 45.088 163.646 44.92V30.88L160.658 30.592C160.586 30.112 160.646 29.692 160.838 29.332C161.702 29.212 162.566 29.068 163.43 28.9C164.318 28.732 165.134 28.552 165.878 28.36C166.118 28.384 166.346 28.432 166.562 28.504C166.778 28.552 167.006 28.636 167.246 28.756V44.92ZM164.834 25.084C164.426 25.084 164.054 24.952 163.718 24.688C163.382 24.424 163.118 24.1 162.926 23.716C162.734 23.332 162.638 22.972 162.638 22.636C162.638 22.324 162.77 22.012 163.034 21.7C163.298 21.364 163.622 21.088 164.006 20.872C164.414 20.632 164.81 20.512 165.194 20.512C165.626 20.512 166.01 20.656 166.346 20.944C166.682 21.208 166.934 21.532 167.102 21.916C167.294 22.276 167.39 22.624 167.39 22.96C167.39 23.272 167.258 23.596 166.994 23.932C166.754 24.268 166.43 24.544 166.022 24.76C165.638 24.976 165.242 25.084 164.834 25.084ZM177.255 31.132L177.291 31.168C178.443 30.016 179.631 29.224 180.855 28.792C182.079 28.36 183.147 28.144 184.059 28.144C185.619 28.144 186.843 28.588 187.731 29.476C188.643 30.364 189.099 31.66 189.099 33.364L189.135 44.92L191.655 45.64C191.727 46.096 191.667 46.516 191.475 46.9C190.827 46.852 190.143 46.804 189.423 46.756C188.703 46.732 188.007 46.72 187.335 46.72C186.663 46.72 185.955 46.732 185.211 46.756C184.467 46.804 183.759 46.852 183.087 46.9C183.015 46.444 183.039 46.024 183.159 45.64C183.639 45.544 184.059 45.436 184.419 45.316C184.803 45.196 185.175 45.064 185.535 44.92V34.984C185.535 33.352 185.283 32.224 184.779 31.6C184.275 30.976 183.471 30.664 182.367 30.664C181.479 30.664 180.615 30.844 179.775 31.204C178.935 31.54 178.191 32.08 177.543 32.824V44.92L179.955 45.64C180.027 46.096 179.967 46.516 179.775 46.9C179.127 46.852 178.455 46.804 177.759 46.756C177.087 46.732 176.415 46.72 175.743 46.72C175.071 46.72 174.339 46.732 173.547 46.756C172.755 46.804 172.023 46.852 171.351 46.9C171.279 46.444 171.303 46.024 171.423 45.64C171.855 45.52 172.287 45.412 172.719 45.316C173.151 45.196 173.559 45.064 173.943 44.92V30.88L170.955 30.592C170.883 30.112 170.943 29.692 171.135 29.332C172.023 29.188 172.887 29.032 173.727 28.864C174.567 28.696 175.371 28.528 176.139 28.36C176.547 28.384 176.955 28.492 177.363 28.684L177.255 31.132ZM197.183 37.72C197.183 40.144 197.663 42.028 198.623 43.372C199.607 44.692 200.939 45.352 202.619 45.352C203.363 45.352 203.987 45.316 204.491 45.244C204.995 45.148 205.487 44.98 205.967 44.74C206.471 44.5 207.035 44.164 207.659 43.732C208.043 43.9 208.259 44.188 208.307 44.596C207.563 45.46 206.675 46.132 205.643 46.612C204.611 47.092 203.567 47.332 202.511 47.332C200.687 47.332 199.091 46.948 197.723 46.18C196.355 45.412 195.287 44.308 194.519 42.868C193.751 41.428 193.367 39.712 193.367 37.72C193.367 35.68 193.763 33.952 194.555 32.536C195.371 31.096 196.451 30.004 197.795 29.26C199.163 28.492 200.675 28.108 202.331 28.108C204.467 28.108 206.039 28.828 207.047 30.268C208.079 31.684 208.595 33.52 208.595 35.776C208.595 35.944 208.595 36.1 208.595 36.244C208.595 36.388 208.583 36.544 208.559 36.712L208.055 37.108L197.183 37V37.72ZM202.295 29.656C201.599 29.656 200.903 29.872 200.207 30.304C199.535 30.736 198.935 31.384 198.407 32.248C197.879 33.112 197.519 34.204 197.327 35.524L205.175 35.092C205.175 33.244 204.971 31.876 204.563 30.988C204.179 30.1 203.423 29.656 202.295 29.656ZM216.771 31.132L216.807 31.168C217.911 30.016 219.039 29.224 220.191 28.792C221.343 28.36 222.351 28.144 223.215 28.144C224.391 28.144 225.387 28.408 226.203 28.936C227.019 29.44 227.595 30.184 227.931 31.168C228.963 30.016 229.983 29.224 230.991 28.792C231.999 28.36 233.007 28.144 234.015 28.144C235.575 28.144 236.799 28.588 237.687 29.476C238.599 30.364 239.055 31.66 239.055 33.364L239.091 44.92L241.611 45.64C241.683 46.096 241.623 46.516 241.431 46.9C240.783 46.852 240.099 46.804 239.379 46.756C238.659 46.732 237.963 46.72 237.291 46.72C236.619 46.72 235.911 46.732 235.167 46.756C234.423 46.804 233.715 46.852 233.043 46.9C232.971 46.444 232.995 46.024 233.115 45.64C233.595 45.544 234.015 45.436 234.375 45.316C234.759 45.196 235.131 45.064 235.491 44.92V34.984C235.491 33.352 235.239 32.236 234.735 31.636C234.231 31.036 233.427 30.736 232.323 30.736C231.795 30.736 231.171 30.916 230.451 31.276C229.731 31.612 228.999 32.212 228.255 33.076V33.364L228.291 44.92L230.811 45.64C230.883 46.096 230.823 46.516 230.631 46.9C229.983 46.852 229.299 46.804 228.579 46.756C227.859 46.732 227.163 46.72 226.491 46.72C225.819 46.72 225.111 46.732 224.367 46.756C223.623 46.804 222.915 46.852 222.243 46.9C222.171 46.444 222.195 46.024 222.315 45.64C222.795 45.544 223.215 45.436 223.575 45.316C223.959 45.196 224.331 45.064 224.691 44.92V34.984C224.691 33.352 224.439 32.224 223.935 31.6C223.431 30.976 222.627 30.664 221.523 30.664C220.947 30.664 220.263 30.844 219.471 31.204C218.703 31.54 217.899 32.08 217.059 32.824V44.92L219.471 45.64C219.543 46.096 219.483 46.516 219.291 46.9C218.643 46.852 217.971 46.804 217.275 46.756C216.603 46.732 215.931 46.72 215.259 46.72C214.587 46.72 213.855 46.732 213.063 46.756C212.271 46.804 211.539 46.852 210.867 46.9C210.795 46.444 210.819 46.024 210.939 45.64C211.371 45.52 211.803 45.412 212.235 45.316C212.667 45.196 213.075 45.064 213.459 44.92V30.88L210.471 30.592C210.399 30.112 210.459 29.692 210.651 29.332C211.539 29.188 212.403 29.032 213.243 28.864C214.083 28.696 214.887 28.528 215.655 28.36C216.063 28.384 216.471 28.492 216.879 28.684L216.771 31.132ZM248.113 47.332C246.673 47.332 245.461 46.96 244.477 46.216C243.493 45.448 243.001 44.296 243.001 42.76C243.001 41.56 243.289 40.576 243.865 39.808C244.465 39.04 245.257 38.452 246.241 38.044C247.249 37.612 248.365 37.324 249.589 37.18C250.813 37.036 252.061 36.976 253.333 37L253.369 33.832C253.393 32.488 253.141 31.456 252.613 30.736C252.085 29.992 251.281 29.62 250.201 29.62C249.601 29.62 249.025 29.668 248.473 29.764C247.921 29.836 247.369 29.968 246.817 30.16L246.349 33.976C246.157 34.072 245.893 34.132 245.557 34.156C245.221 34.156 244.957 34.144 244.765 34.12C244.549 33.328 244.369 32.536 244.225 31.744C244.081 30.952 244.021 30.184 244.045 29.44C245.173 28.912 246.301 28.54 247.429 28.324C248.581 28.108 249.829 28 251.173 28C252.517 28 253.597 28.216 254.413 28.648C255.253 29.08 255.865 29.824 256.249 30.88C256.657 31.936 256.861 33.412 256.861 35.308V44.956C257.269 45.148 257.689 45.292 258.121 45.388C258.553 45.46 258.973 45.556 259.381 45.676C259.453 46.132 259.393 46.552 259.201 46.936C258.817 47.008 258.349 47.068 257.797 47.116C257.269 47.164 256.729 47.188 256.177 47.188C255.385 47.188 254.701 47.116 254.125 46.972L253.621 45.1H253.477C252.877 45.724 252.133 46.252 251.245 46.684C250.357 47.116 249.313 47.332 248.113 47.332ZM249.481 45.352C250.153 45.352 250.873 45.148 251.641 44.74C252.409 44.308 252.973 43.828 253.333 43.3V38.44C250.861 38.44 249.121 38.74 248.113 39.34C247.105 39.916 246.601 40.936 246.601 42.4C246.601 43.384 246.865 44.128 247.393 44.632C247.921 45.112 248.617 45.352 249.481 45.352Z" fill="white"/>
</svg>
