<svg width="360" height="760" viewBox="0 0 360 760" fill="none" xmlns="http://www.w3.org/2000/svg">
  <rect width="360" height="760" rx="36" fill="#F6FAF8"/>
  <rect x="18" y="18" width="324" height="724" rx="28" fill="#FFFFFF" stroke="#D7E9E0" stroke-width="2"/>
  <text x="36" y="72" font-family="Segoe UI, Arial, sans-serif" font-size="24" font-weight="700" fill="#113B2C">Prince Cinema</text>
  <text x="36" y="98" font-family="Segoe UI, Arial, sans-serif" font-size="13" fill="#4D6B5F">LinearLayout showtime planner</text>
  <rect x="36" y="128" width="84" height="40" rx="12" fill="#D6F5E3"/>
  <rect x="138" y="128" width="84" height="40" rx="12" fill="#DCFCE7"/>
  <rect x="240" y="128" width="84" height="40" rx="12" fill="#BBF7D0"/>
  <text x="66" y="153" font-family="Segoe UI, Arial, sans-serif" font-size="14" font-weight="700" fill="#14532D">2D</text>
  <text x="168" y="153" font-family="Segoe UI, Arial, sans-serif" font-size="14" font-weight="700" fill="#14532D">3D</text>
  <text x="265" y="153" font-family="Segoe UI, Arial, sans-serif" font-size="14" font-weight="700" fill="#14532D">IMAX</text>
  <rect x="36" y="196" width="288" height="240" rx="18" fill="#F8FFFA" stroke="#D7E9E0" stroke-width="2"/>
  <text x="56" y="230" font-family="Segoe UI, Arial, sans-serif" font-size="18" font-weight="700" fill="#113B2C">Today's Showtime Queue</text>
  <text x="56" y="278" font-family="Segoe UI, Arial, sans-serif" font-size="14" font-weight="700" fill="#166534">10:30 AM</text>
  <text x="182" y="278" font-family="Segoe UI, Arial, sans-serif" font-size="13" fill="#4D6B5F">Hall 01</text>
  <text x="250" y="278" font-family="Segoe UI, Arial, sans-serif" font-size="13" fill="#4D6B5F">84 seats</text>
  <text x="56" y="320" font-family="Segoe UI, Arial, sans-serif" font-size="14" font-weight="700" fill="#166534">01:45 PM</text>
  <text x="182" y="320" font-family="Segoe UI, Arial, sans-serif" font-size="13" fill="#4D6B5F">Hall 03</text>
  <text x="250" y="320" font-family="Segoe UI, Arial, sans-serif" font-size="13" fill="#4D6B5F">32 seats</text>
  <text x="56" y="362" font-family="Segoe UI, Arial, sans-serif" font-size="14" font-weight="700" fill="#166534">06:30 PM</text>
  <text x="182" y="362" font-family="Segoe UI, Arial, sans-serif" font-size="13" fill="#4D6B5F">Hall 05</text>
  <text x="246" y="362" font-family="Segoe UI, Arial, sans-serif" font-size="13" fill="#4D6B5F">Sold Out</text>
  <rect x="36" y="474" width="136" height="44" rx="12" fill="#EEF8F1" stroke="#B7DCC6" stroke-width="2"/>
  <text x="81" y="501" font-family="Segoe UI, Arial, sans-serif" font-size="14" font-weight="600" fill="#166534">Refresh</text>
  <rect x="188" y="474" width="136" height="44" rx="12" fill="#15803D"/>
  <text x="229" y="501" font-family="Segoe UI, Arial, sans-serif" font-size="14" font-weight="700" fill="#FFFFFF">Continue</text>
</svg>
